<svg width="32" height="32" viewBox="0 0 32 32" fill="none" xmlns="http://www.w3.org/2000/svg">
  <rect width="32" height="32" rx="6" fill="#10B981"/>
  <path d="M6 8C6 6.89543 6.89543 6 8 6H16C17.1046 6 18 6.89543 18 8C18 9.10457 17.1046 10 16 10H8C6.89543 10 6 9.10457 6 8Z" fill="white"/>
  <path d="M14 12C14 10.8954 14.8954 10 16 10H24C25.1046 10 26 10.8954 26 12C26 13.1046 25.1046 14 24 14H16C14.8954 14 14 13.1046 14 12Z" fill="white"/>
  <path d="M6 16C6 14.8954 6.89543 14 8 14H24C25.1046 14 26 14.8954 26 16C26 17.1046 25.1046 18 24 18H8C6.89543 18 6 17.1046 6 16Z" fill="white"/>
  <path d="M14 20C14 18.8954 14.8954 18 16 18H24C25.1046 18 26 18.8954 26 20C26 21.1046 25.1046 22 24 22H16C14.8954 22 14 21.1046 14 20Z" fill="white"/>
  <path d="M6 24C6 22.8954 6.89543 22 8 22H16C17.1046 22 18 22.8954 18 24C18 25.1046 17.1046 26 16 26H8C6.89543 26 6 25.1046 6 24Z" fill="white"/>
</svg>